<svg preserveAspectRatio="none" overflow="visible" style="display: block;" width="24" height="24" viewBox="0 0 24 24" fill="none" xmlns="http://www.w3.org/2000/svg">
<g id="Attributes">
<path d="M21.9914 11.28C21.9914 11.6776 22.3125 12 22.7085 12C23.1046 12 23.4257 11.6776 23.4257 11.28C23.4257 9.79869 23.1351 8.33189 22.5705 6.96333C22.0059 5.59478 21.1783 4.35128 20.1351 3.30384C19.0918 2.25639 17.8533 1.42551 16.4903 0.85864C15.1272 0.291766 13.6663 0 12.1909 0C11.7949 0 11.4738 0.322355 11.4738 0.72C11.4738 1.11764 11.7949 1.44 12.1909 1.44C13.4779 1.44 14.7523 1.69452 15.9414 2.18903C17.1305 2.68353 18.2109 3.40834 19.1209 4.32207C20.031 5.2358 20.7529 6.32055 21.2454 7.5144C21.7379 8.70824 21.9914 9.9878 21.9914 11.28Z" fill="#647696"/>
<path d="M2.39037 11.28C2.39037 10.8824 2.06931 10.56 1.67326 10.56C1.27721 10.56 0.956149 10.8824 0.956149 11.28C0.956149 12.7613 1.24674 14.2281 1.81134 15.5967C2.37594 16.9652 3.20349 18.2087 4.24673 19.2562C5.28997 20.3036 6.52848 21.1345 7.89155 21.7014C9.25461 22.2682 10.7155 22.56 12.1909 22.56C12.587 22.56 12.908 22.2376 12.908 21.84C12.908 21.4424 12.587 21.12 12.1909 21.12C10.9039 21.12 9.62946 20.8655 8.4404 20.371C7.25135 19.8765 6.17094 19.1517 5.26088 18.2379C4.35082 17.3242 3.62892 16.2394 3.13639 15.0456C2.64387 13.8518 2.39037 12.5722 2.39037 11.28Z" fill="#647696"/>
<path fill-rule="evenodd" clip-rule="evenodd" d="M7.64919 16.08C7.64919 13.5653 9.67933 11.52 12.1862 11.52C14.5708 11.52 16.5484 13.3734 16.7125 15.7619L16.7309 16.0305C16.7446 16.2295 16.6753 16.4254 16.5397 16.5713C16.4041 16.7172 16.2143 16.8 16.0155 16.8H8.3663C7.97026 16.8 7.64919 16.4776 7.64919 16.08ZM9.16661 15.36H15.2065C14.8826 13.9755 13.6459 12.96 12.1862 12.96C10.7202 12.96 9.49025 13.9848 9.16661 15.36Z" fill="#647696"/>
<path fill-rule="evenodd" clip-rule="evenodd" d="M12.1909 5.76C10.7387 5.76 9.56149 6.94197 9.56149 8.4C9.56149 9.85803 10.7387 11.04 12.1909 11.04C13.6431 11.04 14.8203 9.85803 14.8203 8.4C14.8203 6.94197 13.6431 5.76 12.1909 5.76ZM10.9957 8.4C10.9957 7.73726 11.5308 7.2 12.1909 7.2C12.851 7.2 13.3861 7.73726 13.3861 8.4C13.3861 9.06274 12.851 9.6 12.1909 9.6C11.5308 9.6 10.9957 9.06274 10.9957 8.4Z" fill="#647696"/>
<path fill-rule="evenodd" clip-rule="evenodd" d="M0 2.64C0 1.71216 0.749144 0.96 1.67326 0.96H5.49786C6.42197 0.96 7.17112 1.71216 7.17112 2.64V6.48C7.17112 7.40784 6.42197 8.16 5.49786 8.16H1.67326C0.749145 8.16 0 7.40784 0 6.48V2.64ZM1.67326 2.4C1.54124 2.4 1.43422 2.50745 1.43422 2.64V6.48C1.43422 6.61255 1.54124 6.72 1.67326 6.72H5.49786C5.62987 6.72 5.73689 6.61255 5.73689 6.48V2.64C5.73689 2.50745 5.62987 2.4 5.49786 2.4H1.67326Z" fill="#647696"/>
<path fill-rule="evenodd" clip-rule="evenodd" d="M21.2892 17.16C20.6451 16.04 19.035 16.04 18.391 17.16L15.9069 21.48C15.2628 22.6 16.0679 24 17.3559 24H22.3242C23.6123 24 24.4174 22.6 23.7733 21.48L21.2892 17.16ZM19.6331 17.88C19.7251 17.72 19.9551 17.72 20.0471 17.88L22.5313 22.2C22.6233 22.36 22.5083 22.56 22.3242 22.56H17.3559C17.1719 22.56 17.0569 22.36 17.1489 22.2L19.6331 17.88Z" fill="#647696"/>
</g>
</svg>
