<svg preserveAspectRatio="none" overflow="visible" style="display: block;" width="25.5" height="25.5" viewBox="0 0 25.5 25.5" fill="none" xmlns="http://www.w3.org/2000/svg">
<g id="UserCircle">
<path fill-rule="evenodd" clip-rule="evenodd" d="M12.75 1.5C6.5368 1.5 1.5 6.5368 1.5 12.75C1.5 18.9632 6.5368 24 12.75 24C18.9632 24 24 18.9632 24 12.75C24 6.5368 18.9632 1.5 12.75 1.5ZM0 12.75C0 5.70837 5.70837 0 12.75 0C19.7916 0 25.5 5.70837 25.5 12.75C25.5 19.7916 19.7916 25.5 12.75 25.5C5.70837 25.5 0 19.7916 0 12.75Z" fill="#6C5CE7"/>
<path fill-rule="evenodd" clip-rule="evenodd" d="M12.75 7.5C10.4028 7.5 8.5 9.40279 8.5 11.75C8.5 14.0972 10.4028 16 12.75 16C15.0972 16 17 14.0972 17 11.75C17 9.40279 15.0972 7.5 12.75 7.5ZM7 11.75C7 8.57436 9.57436 6 12.75 6C15.9256 6 18.5 8.57436 18.5 11.75C18.5 14.9256 15.9256 17.5 12.75 17.5C9.57436 17.5 7 14.9256 7 11.75Z" fill="#6C5CE7"/>
<path fill-rule="evenodd" clip-rule="evenodd" d="M12.75 17.5C11.2265 17.5 9.73271 17.9211 8.43427 18.7181C7.13583 19.5151 6.08344 20.656 5.39375 22.0145C5.20624 22.3839 4.75482 22.5313 4.38548 22.3438C4.01614 22.1562 3.86874 21.7048 4.05625 21.3355C4.87134 19.73 6.11507 18.3816 7.64959 17.4397C9.18411 16.4978 10.9495 16 12.75 16C14.5505 16 16.3159 16.4978 17.8504 17.4397C19.3849 18.3816 20.6287 19.73 21.4437 21.3355C21.6313 21.7048 21.4839 22.1562 21.1145 22.3438C20.7452 22.5313 20.2938 22.3839 20.1063 22.0145C19.4166 20.656 18.3642 19.5151 17.0657 18.7181C15.7673 17.9211 14.2735 17.5 12.75 17.5Z" fill="#6C5CE7"/>
</g>
</svg>
